HIERARCHY
ROOT Hips
{
	OFFSET 0.000000 0.000000 0.000000
	CHANNELS 6 Xposition Yposition Zposition Zrotation Yrotation Xrotation 
	JOINT LeftUpLeg_virtual
	{
		OFFSET 0.000000 0.000000 0.000000
		CHANNELS 3 Zrotation Yrotation Xrotation
		JOINT LeftUpLeg
		{
			OFFSET 8.479694 -4.795517 -0.379053
			CHANNELS 3 Zrotation Yrotation Xrotation
			JOINT LeftLeg
			{
				OFFSET 0.485052 -32.551468 0.112863
				CHANNELS 3 Zrotation Yrotation Xrotation
				JOINT LeftFoot
				{
					OFFSET 0.438033 -32.635670 -3.012641
					CHANNELS 3 Zrotation Yrotation Xrotation
					JOINT LeftToeBase
					{
						OFFSET 0.970169 -13.225353 11.864223
						CHANNELS 3 Zrotation Yrotation Xrotation
						End Site
						{
							OFFSET 0.000000 0.000000 0.000000
						}
					}
				}
			}
		}
	}
	JOINT RightUpLeg_virtual
	{
		OFFSET 0.000000 0.000000 0.000000
		CHANNELS 3 Zrotation Yrotation Xrotation
		JOINT RightUpLeg
		{
			OFFSET -8.479694 -4.795517 -0.379053
			CHANNELS 3 Zrotation Yrotation Xrotation
			JOINT RightLeg
			{
				OFFSET -0.484100 -32.551483 0.112903
				CHANNELS 3 Zrotation Yrotation Xrotation
				JOINT RightFoot
				{
					OFFSET -0.438985 -32.635651 -3.012681
					CHANNELS 3 Zrotation Yrotation Xrotation
					JOINT RightToeBase
					{
						OFFSET -0.970169 -13.225354 11.864223
						CHANNELS 3 Zrotation Yrotation Xrotation
						End Site
						{
							OFFSET 0.000000 0.000000 0.000000
						}
					}
				}
			}
		}
	}
	JOINT Spine_virtual
	{
		OFFSET 0.000000 0.000000 0.000000
		CHANNELS 3 Zrotation Yrotation Xrotation
		JOINT Spine
		{
			OFFSET 0.000000 7.722015 1.166203
			CHANNELS 3 Zrotation Yrotation Xrotation
			JOINT Spine1
			{
				OFFSET 0.000000 12.024086 0.248766
				CHANNELS 3 Zrotation Yrotation Xrotation
				JOINT Spine2
				{
					OFFSET -0.000000 11.503036 -0.491240
					CHANNELS 3 Zrotation Yrotation Xrotation
					JOINT Neck_virtual
					{
						OFFSET 0.000000 0.000000 0.000000
						CHANNELS 3 Zrotation Yrotation Xrotation
						JOINT Neck
						{
							OFFSET 0.000000 18.430687 -3.123054
							CHANNELS 3 Zrotation Yrotation Xrotation
							JOINT Head
							{
								OFFSET -0.000000 9.051071 1.034021
								CHANNELS 3 Zrotation Yrotation Xrotation
								End Site
								{
									OFFSET 0.000000 0.000000 0.000000
								}
							}
						}
					}
					JOINT LeftShoulder_virtual
					{
						OFFSET 0.000000 0.000000 0.000000
						CHANNELS 3 Zrotation Yrotation Xrotation
						JOINT LeftShoulder
						{
							OFFSET 6.197824 13.665230 -4.064723
							CHANNELS 3 Zrotation Yrotation Xrotation
							JOINT LeftArm
							{
								OFFSET 7.778132 -0.187073 -1.709282
								CHANNELS 3 Zrotation Yrotation Xrotation
								JOINT LeftForeArm
								{
									OFFSET 21.954697 0.000000 -2.041093
									CHANNELS 3 Zrotation Yrotation Xrotation
									JOINT LeftHand
									{
										OFFSET 22.992908 0.000000 -0.870901
										CHANNELS 3 Zrotation Yrotation Xrotation
										End Site
										{
											OFFSET 0.000000 0.000000 0.000000
										}
									}
								}
							}
						}
					}
					JOINT RightShoulder_virtual
					{
						OFFSET 0.000000 0.000000 0.000000
						CHANNELS 3 Zrotation Yrotation Xrotation
						JOINT RightShoulder
						{
							OFFSET -6.197824 13.665230 -4.064723
							CHANNELS 3 Zrotation Yrotation Xrotation
							JOINT RightArm
							{
								OFFSET -7.778132 -0.187073 -1.709282
								CHANNELS 3 Zrotation Yrotation Xrotation
								JOINT RightForeArm
								{
									OFFSET -21.954697 0.000000 -2.041093
									CHANNELS 3 Zrotation Yrotation Xrotation
									JOINT RightHand
									{
										OFFSET -22.992908 0.000000 -0.870901
										CHANNELS 3 Zrotation Yrotation Xrotation
										End Site
										{
											OFFSET 0.000000 0.000000 0.000000
										}
									}
								}
							}
						}
					}
				}
			}
		}
	}
}
MOTION
Frames: 7
Frame Time: 0.033333
-7.283424 80.304024 53.841297 -179.896692 16.178596 -179.764145 -3.265887 -0.765691 10.605769 -4.075823 9.136388 -32.899211 7.446908 5.901421 30.658848 -3.359243 -5.387454 -13.570631 0.000000 0.000000 0.000000 1.853803 -0.923203 9.584184 -4.075317 -1.284879 -38.430876 -0.987015 4.549646 36.316567 10.136821 8.517945 -6.594202 0.000000 0.000000 0.000000 1.650228 0.774664 -1.092885 1.477710 1.122138 -3.458001 -1.323616 -2.462960 12.422583 -0.054710 -0.046001 0.070784 -1.291069 -1.546748 12.602045 2.291951 -3.900847 0.594439 0.000000 0.000000 0.000000 0.206773 -1.136481 9.499294 -4.467467 -2.915913 3.362147 -65.227029 -20.809011 22.561880 118.752374 -88.369370 -89.454578 0.000000 0.000000 0.000000 -4.010714 0.829662 8.518273 21.610775 7.512575 6.709144 47.761747 20.934562 13.322757 -163.394558 73.845383 -166.350828 0.000000 0.000000 0.000000 
-7.237679 80.342941 54.081184 -179.931635 16.214434 -179.783884 -3.432546 -0.876921 10.751353 -3.848661 9.115202 -33.179567 7.371755 5.861572 30.479040 -3.232616 -5.313650 -13.373804 0.000000 0.000000 0.000000 1.979731 -1.195520 9.681657 -3.945314 -1.720310 -38.731954 -0.863633 4.658757 36.194183 10.247329 8.543289 -6.212833 0.000000 0.000000 0.000000 1.489900 0.765027 -0.536307 1.396388 1.050318 -3.255614 -1.309399 -2.454443 12.211097 0.050359 -0.030293 0.057581 -1.296247 -1.271615 12.353540 2.042821 -3.804732 0.200216 0.000000 0.000000 0.000000 0.198986 -1.189796 9.270606 -4.390595 -2.790488 3.399296 -65.370170 -20.665432 22.672470 115.302281 -88.300959 -86.084378 0.000000 0.000000 0.000000 -4.021149 0.796910 8.222777 21.515265 7.574423 6.722313 48.074717 21.014651 14.289404 -162.850602 73.870381 -165.843045 0.000000 0.000000 0.000000 
-7.203960 80.375237 54.228439 179.957603 16.541697 -179.843266 -3.628351 -0.770012 10.977051 -3.653865 8.794692 -33.423053 7.310211 5.855843 30.374002 -3.007670 -5.061843 -13.250679 0.000000 0.000000 0.000000 2.121079 -1.213777 9.837430 -3.945691 -2.277127 -38.980716 -0.750548 4.791495 36.053625 10.522599 8.651100 -5.882217 0.000000 0.000000 0.000000 1.161034 0.759388 -0.024869 1.342977 1.016940 -3.006138 -1.277741 -2.422731 12.005662 -0.026786 -0.009803 0.055775 -1.216614 -1.314437 12.123863 1.935181 -3.715128 -0.203892 0.000000 0.000000 0.000000 0.288570 -1.004730 8.976983 -4.176145 -2.686459 3.460150 -65.537728 -20.462642 22.798890 121.487974 -88.166131 -92.409174 0.000000 0.000000 0.000000 -3.918226 0.859371 7.942708 21.403707 7.523535 6.622542 48.679639 20.980745 14.444277 -161.847070 73.843784 -165.040634 0.000000 0.000000 0.000000 
-7.160828 80.377625 54.257236 179.889438 16.624914 -179.813828 -3.742263 -0.785434 11.162666 -3.483177 8.312048 -33.682255 7.388038 5.693116 30.454157 -2.804894 -4.761238 -13.301222 0.000000 0.000000 0.000000 2.332516 -1.497145 9.954576 -3.961288 -2.761058 -39.340998 -0.653129 4.890226 36.176397 10.966736 8.676554 -5.652382 0.000000 0.000000 0.000000 0.869621 0.655373 0.312188 1.251981 0.948487 -2.776961 -1.266139 -2.450442 11.757326 -0.005249 0.129896 0.027162 -1.189573 -1.290696 11.937362 1.719570 -3.567208 -0.696786 0.000000 0.000000 0.000000 0.381441 -1.127452 8.709279 -4.062359 -2.392608 3.554887 -65.628761 -20.424091 22.941181 127.310792 -88.067810 -98.402863 0.000000 0.000000 0.000000 -3.840533 0.838203 7.703877 21.141889 7.166505 6.400793 49.275526 20.970253 14.009143 -160.945977 73.739241 -164.437706 0.000000 0.000000 0.000000 
-7.118366 80.346016 54.257565 179.825302 16.727135 179.896377 -3.841064 -0.501232 11.490183 -3.367367 7.621723 -33.733082 7.529666 5.526222 30.474289 -2.664884 -4.449480 -13.450266 0.000000 0.000000 0.000000 2.828971 -1.853776 10.220599 -4.411047 -3.112402 -39.624478 -0.529537 5.016302 36.458798 11.269550 8.941143 -5.664240 0.000000 0.000000 0.000000 0.603770 0.710446 0.756493 1.221523 0.939096 -2.409426 -1.192269 -2.308362 11.575304 0.022328 0.052934 0.026088 -1.167481 -1.294396 11.604998 1.772144 -3.612600 -1.245675 0.000000 0.000000 0.000000 0.405268 -1.123687 8.357991 -3.768399 -2.339349 3.621832 -65.756239 -20.652737 23.085572 132.129613 -87.918414 -103.403634 0.000000 0.000000 0.000000 -3.814192 0.790580 7.343492 20.832798 6.665788 6.118088 49.602616 20.939719 13.285604 -159.609882 73.740095 -163.472846 0.000000 0.000000 0.000000 
-7.095400 80.286461 54.311565 179.638620 16.760535 179.829510 -3.969244 -0.478070 11.650453 -3.403724 7.088526 -33.949592 7.820057 5.520307 30.667689 -2.664109 -4.244753 -13.611838 0.000000 0.000000 0.000000 3.384159 -2.175570 10.240195 -4.974476 -3.626411 -40.379740 -0.218270 5.237413 37.526828 11.610197 8.854241 -5.602492 0.000000 0.000000 0.000000 0.402173 0.681442 1.114127 1.148785 0.968206 -2.128802 -1.253778 -2.349454 11.308808 0.070357 0.057483 0.016806 -1.107625 -1.035781 11.278556 1.764930 -3.546936 -1.920900 0.000000 0.000000 0.000000 0.496231 -1.119580 8.015877 -3.571644 -2.287503 3.656031 -65.719090 -20.993174 23.156563 135.022294 -87.909780 -106.431115 0.000000 0.000000 0.000000 -3.792649 0.877677 7.023743 20.342781 6.143528 5.832255 49.671113 21.008267 12.816995 -158.490715 73.762614 -162.747890 0.000000 0.000000 0.000000 
-7.047518 80.212151 54.538483 179.664492 16.736689 179.630997 -3.910159 -0.389814 11.866892 -3.498155 6.834024 -34.181648 8.177027 5.399491 30.817137 -2.785448 -4.096998 -13.629932 0.000000 0.000000 0.000000 3.884728 -2.353020 10.181918 -5.202086 -3.869409 -41.347848 -0.020880 5.394324 39.111142 11.500016 8.503246 -5.440447 0.000000 0.000000 0.000000 0.568595 0.649764 1.693828 1.063467 1.081659 -1.732136 -1.205066 -2.311857 11.062660 0.088701 0.055439 0.008436 -1.105012 -1.131812 10.951303 1.947590 -3.568631 -2.654088 0.000000 0.000000 0.000000 0.435855 -1.028160 7.752780 -3.208600 -2.479951 3.631730 -65.708633 -21.731476 23.397875 132.905687 -87.984523 -104.403717 0.000000 0.000000 0.000000 -3.829188 1.004676 6.722770 19.741081 5.627269 5.240777 49.494536 21.233815 12.723842 -157.646558 73.973380 -162.273369 0.000000 0.000000 0.000000 
